Coordinates
version=1
nRows=12
nColumns=23
inDegrees=yes

Units are S.I. units (second, meters, Newtons, ...)
If the header above contains a line with 'inDegrees', this indicates whether rotational values are in degrees (yes) or radians (no).

endheader
time	pelvis_tilt	pelvis_list	pelvis_rotation	pelvis_tx	pelvis_ty	pelvis_tz	hip_flexion_r	hip_adduction_r	hip_rotation_r	knee_angle_r	knee_angle_r_beta	ankle_angle_r	subtalar_angle_r	mtp_angle_r	hip_flexion_l	hip_adduction_l	hip_rotation_l	knee_angle_l	knee_angle_l_beta	ankle_angle_l	subtalar_angle_l	mtp_angle_l
      7.50000000	    -10.02509896	      6.50054638	     -1.74530869	      2.33162266	      1.01880412	      1.00365092	    -20.88832615	     -6.60736430	    -10.17452936	     18.50521599	      0.32297695	    -22.48405467	      2.86487025	      0.00000000	     51.77564230	      7.76798807	      1.03766111	     55.67098091	      0.97164191	      1.68167146	    -23.89229288	      0.00000000
      7.50666667	    -10.10114186	      6.83487209	     -1.87602568	      2.33271160	      1.02092883	      1.00305109	    -21.14308948	     -7.51430378	    -11.22404533	     20.28771199	      0.35408737	    -23.57679179	      2.17460526	      0.00000000	     51.35136907	      7.92089279	      0.54271938	     50.98017315	      0.88977187	      2.00124888	    -22.67725562	      0.00000000
      7.51333333	     -9.86591360	      7.23473302	     -2.20413462	      2.33369042	      1.02297089	      1.00267088	    -21.48408794	     -8.58731590	    -11.92264243	     22.57204343	      0.39395648	    -24.18086902	      1.30839438	      0.00000000	     50.50975288	      8.00915597	     -0.18157307	     46.39854414	      0.80980736	      2.33929389	    -20.96198296	      0.00000000
      7.52000000	     -9.53188428	      7.56258325	     -2.54147351	      2.33454616	      1.02461402	      1.00229067	    -21.74193079	     -9.54673159	    -12.14543365	     25.24118770	      0.44054183	    -24.52447665	     -0.18851320	      0.00000000	     49.51215084	      8.09923803	     -0.83477600	     42.04358264	      0.73379895	      2.55758222	    -18.79733313	      0.00000000
      7.52666667	     -8.97262807	      7.90857706	     -3.08260174	      2.33536756	      1.02610710	      1.00234093	    -22.02924603	    -10.45796171	    -11.55631450	     28.20427021	      0.49225738	    -24.76523999	     -2.41139850	      0.00000000	     48.24762267	      8.04006846	     -1.82953012	     37.99527780	      0.66314270	      2.80371600	    -15.88136931	      0.00000000
      7.53333333	     -8.31418096	      8.05627339	     -3.59922200	      2.33600680	      1.02717243	      1.00254720	    -22.22690915	    -10.95441296	    -10.24034759	     31.45721991	      0.54903206	    -25.01626607	     -5.49324735	      0.00000000	     46.93756372	      7.83886272	     -2.84867333	     34.49431303	      0.60203934	      3.09515895	    -12.26348575	      0.00000000
      7.54000000	     -7.64899636	      8.19655468	     -4.14216628	      2.33645576	      1.02774759	      1.00301606	    -22.19295231	    -11.33062991	     -8.60257230	     35.09480795	      0.61251995	    -25.27554050	     -8.86366608	      0.00000000	     45.64579593	      7.69499413	     -3.74715614	     31.43201645	      0.54859218	      3.08915772	     -8.91889654	      0.00000000
      7.54666667	     -6.95813820	      8.26081006	     -4.63519061	      2.33672213	      1.02790832	      1.00373357	    -22.00635577	    -11.43774143	     -6.70639583	     39.00164029	      0.68070704	    -25.61548833	    -12.39151921	      0.00000000	     44.36282312	      7.57821915	     -4.44661878	     28.87609756	      0.50398298	      2.89869395	     -5.78724845	      0.00000000
      7.55333333	     -6.27224993	      8.27619831	     -5.05932875	      2.33685575	      1.02754160	      1.00472015	    -21.66847231	    -11.34124486	     -4.81082412	     43.14943356	      0.75309969	    -25.96968073	    -15.81503136	      0.00000000	     43.16582183	      7.46031511	     -5.08247033	     26.93192761	      0.47005081	      2.65145800	     -2.88325601	      0.00000000
      7.56000000	     -5.62286481	      8.35425695	     -5.39297584	      2.33684493	      1.02663161	      1.00586496	    -21.15309723	    -11.25025868	     -3.21143678	     47.53123201	      0.82957650	    -26.21122572	    -18.64372920	      0.00000000	     42.02881195	      7.51240843	     -5.45502602	     25.43051900	      0.44384629	      2.16133271	     -0.89718119	      0.00000000
      7.56666667	     -4.97455352	      8.35890417	     -5.57721157	      2.33680487	      1.02525010	      1.00712088	    -20.59825576	    -10.91826462	     -1.74698866	     51.95904358	      0.90685639	    -26.53954836	    -21.25247806	      0.00000000	     40.97714300	      7.53676487	     -5.89076380	     24.58452172	      0.42908085	      1.78753353	      0.91148407	      0.00000000
      7.57333333	     -4.31646208	      8.30044540	     -5.63261284	      2.33677890	      1.02344033	      1.00848569	    -20.01895649	    -10.45036603	     -0.57238936	     56.39505916	      0.98427946	    -26.82738611	    -23.45473473	      0.00000000	     39.97671119	      7.50734260	     -6.46796866	     24.33472924	      0.42472115	      1.57612398	      2.49066048	      0.00000000
